<svg width="64" height="64" viewBox="0 0 64 64" xmlns="http://www.w3.org/2000/svg">
  <!-- Background circle -->
  <circle cx="32" cy="32" r="30" fill="#2563eb" stroke="#1d4ed8" stroke-width="2"/>
  
  <!-- Globe/Web icon -->
  <circle cx="32" cy="32" r="20" fill="none" stroke="white" stroke-width="2"/>
  <path d="M12 32 Q32 12 52 32 Q32 52 12 32" stroke="white" stroke-width="2" fill="none"/>
  <path d="M32 12 Q52 32 32 52 Q12 32 32 12" stroke="white" stroke-width="2" fill="none"/>
  
  <!-- Routing arrows -->
  <path d="M20 20 L28 20 L28 16 L36 24 L28 32 L28 28 L20 28 Z" fill="white"/>
  <path d="M44 36 L36 36 L36 40 L28 32 L36 24 L36 28 L44 28 Z" fill="white"/>
  
  <!-- URL text indicator -->
  <rect x="16" y="40" width="32" height="8" rx="2" fill="white" opacity="0.8"/>
  <text x="32" y="46" text-anchor="middle" font-family="Arial, sans-serif" font-size="6" fill="#2563eb">URL</text>
</svg>
